<?xml version="1.0" encoding="UTF-8"?>
<svg width="160px" height="68px" viewBox="0 0 160 68" version="1.1" xmlns="http://www.w3.org/2000/svg" xmlns:xlink="http://www.w3.org/1999/xlink">
    <title>logo type-1</title>
    <defs>
        <linearGradient x1="10.7179612%" y1="14.0965441%" x2="88.0491286%" y2="86.5972222%" id="colorGradient">
            <stop stop-color="#FF126D" offset="0%"></stop>
            <stop stop-color="#FFC11F" offset="100%"></stop>
        </linearGradient>
        <linearGradient x1="50%" y1="16.8871444%" x2="136.9174%" y2="78.3146358%" id="whiteGradient">
            <stop stop-color="#FFFFFF" offset="0%"></stop>
            <stop stop-color="#FFFFFF" stop-opacity="0" offset="100%"></stop>
        </linearGradient>
    </defs>
    <g id="logo-type-1">
        <path d="M98.015,27 L98.015,5.64 L94.775,5.64 L94.775,14.76 L86.105,14.76 L86.105,5.64 L82.865,5.64 L82.865,27 L86.105,27 L86.105,17.67 L94.775,17.67 L94.775,27 L98.015,27 Z M113.425,27 L110.425,27 L110.425,25.62 C109.315,26.73 108.265,27.18 106.375,27.18 C104.485,27.18 103.225,26.73 102.295,25.8 C101.515,24.99 101.095,23.82 101.095,22.53 C101.095,19.98 102.865,18.15 106.375,18.15 L110.365,18.15 L110.365,17.07 C110.365,15.12 109.435,14.22 107.035,14.22 C105.415,14.22 104.575,14.64 103.705,15.72 L101.725,13.83 C103.135,12.15 104.605,11.61 107.155,11.61 C111.355,11.61 113.425,13.41 113.425,16.83 L113.425,27 Z M110.365,21.51 L110.365,20.28 L106.855,20.28 C104.995,20.28 104.065,21.06 104.065,22.47 C104.065,23.88 104.935,24.63 106.945,24.63 C108.025,24.63 108.895,24.51 109.705,23.76 C110.185,23.31 110.365,22.59 110.365,21.51 Z M129.585,19.38 C129.585,21.87 129.345,24.33 127.875,25.83 C127.035,26.67 125.745,27.18 124.185,27.18 C122.565,27.18 121.305,26.79 120.195,25.44 L120.195,33.15 L117.135,33.15 L117.135,11.79 L120.135,11.79 L120.135,13.41 C121.275,12.03 122.535,11.61 124.155,11.61 C125.715,11.61 127.035,12.12 127.875,12.96 C129.345,14.46 129.585,16.89 129.585,19.38 Z M126.525,19.38 C126.525,16.68 126.135,14.34 123.375,14.34 C120.585,14.34 120.195,16.68 120.195,19.38 C120.195,22.08 120.585,24.45 123.375,24.45 C126.135,24.45 126.525,22.08 126.525,19.38 Z M145.175,19.38 C145.175,21.87 144.935,24.33 143.465,25.83 C142.625,26.67 141.335,27.18 139.775,27.18 C138.155,27.18 136.895,26.79 135.785,25.44 L135.785,33.15 L132.725,33.15 L132.725,11.79 L135.725,11.79 L135.725,13.41 C136.865,12.03 138.125,11.61 139.745,11.61 C141.305,11.61 142.625,12.12 143.465,12.96 C144.935,14.46 145.175,16.89 145.175,19.38 Z M142.115,19.38 C142.115,16.68 141.725,14.34 138.965,14.34 C136.175,14.34 135.785,16.68 135.785,19.38 C135.785,22.08 136.175,24.45 138.965,24.45 C141.725,24.45 142.115,22.08 142.115,19.38 Z M159.805,11.79 L156.535,11.79 L152.995,22.5 L149.365,11.79 L146.125,11.79 L151.435,26.28 L150.595,28.65 C150.145,29.88 149.695,30.27 148.405,30.27 L147.625,30.27 L147.625,33.03 L148.855,33.03 C150.025,33.03 151.135,32.76 151.975,31.92 C152.425,31.47 152.785,30.87 153.085,30.03 L159.805,11.79 Z" id="Happy" fill="#575757"></path>
        <path d="M97.595,58.61 L94.355,58.61 C93.845,60.8 92.345,62.3 89.975,62.3 C88.685,62.3 87.605,61.82 86.825,60.98 C85.745,59.84 85.535,58.55 85.535,54.32 C85.535,50.09 85.745,48.8 86.825,47.66 C87.605,46.82 88.685,46.34 89.975,46.34 C92.345,46.34 93.815,47.84 94.295,50.03 L97.595,50.03 C96.845,45.8 93.905,43.46 89.975,43.46 C87.635,43.46 85.835,44.24 84.455,45.62 C82.385,47.72 82.295,49.85 82.295,54.32 C82.295,58.79 82.385,60.92 84.455,63.02 C85.835,64.4 87.635,65.18 89.975,65.18 C93.875,65.18 96.845,62.84 97.595,58.61 Z M114.265,58.91 C114.265,57.05 113.665,55.58 112.525,54.53 C111.595,53.69 110.515,53.24 108.565,52.94 L106.015,52.55 C104.845,52.37 104.215,52.07 103.675,51.59 C103.105,51.11 102.895,50.39 102.895,49.61 C102.895,47.66 104.245,46.28 106.765,46.28 C108.595,46.28 110.155,46.67 111.475,47.93 L113.515,45.89 C111.685,44.18 109.735,43.46 106.885,43.46 C102.445,43.46 99.745,45.98 99.745,49.7 C99.745,51.47 100.285,52.85 101.335,53.81 C102.265,54.71 103.615,55.25 105.355,55.52 L107.875,55.88 C108.955,56.03 109.675,56.3 110.215,56.78 C110.815,57.29 111.055,58.04 111.055,59 C111.055,61.1 109.465,62.3 106.645,62.3 C104.485,62.3 102.715,61.79 101.155,60.23 L99.025,62.36 C101.095,64.43 103.375,65.18 106.585,65.18 C111.085,65.18 114.265,62.84 114.265,58.91 Z M130.815,58.91 C130.815,57.05 130.215,55.58 129.075,54.53 C128.145,53.69 127.065,53.24 125.115,52.94 L122.565,52.55 C121.395,52.37 120.765,52.07 120.225,51.59 C119.655,51.11 119.445,50.39 119.445,49.61 C119.445,47.66 120.795,46.28 123.315,46.28 C125.145,46.28 126.705,46.67 128.025,47.93 L130.065,45.89 C128.235,44.18 126.285,43.46 123.435,43.46 C118.995,43.46 116.295,45.98 116.295,49.7 C116.295,51.47 116.835,52.85 117.885,53.81 C118.815,54.71 120.165,55.25 121.905,55.52 L124.425,55.88 C125.505,56.03 126.225,56.3 126.765,56.78 C127.365,57.29 127.605,58.04 127.605,59 C127.605,61.1 126.015,62.3 123.195,62.3 C121.035,62.3 119.265,61.79 117.705,60.23 L115.575,62.36 C117.645,64.43 119.925,65.18 123.135,65.18 C127.635,65.18 130.815,62.84 130.815,58.91 Z M145.925,58.28 L136.055,58.28 C136.055,60.92 137.405,62.54 139.925,62.54 C141.635,62.54 142.535,62.06 143.615,60.98 L145.565,62.81 C144.005,64.37 142.535,65.18 139.865,65.18 C136.055,65.18 133.025,63.17 133.025,57.38 C133.025,52.43 135.575,49.61 139.475,49.61 C143.555,49.61 145.925,52.55 145.925,56.99 L145.925,58.28 Z M142.895,56.15 C142.835,55.22 142.775,54.74 142.475,54.08 C141.965,52.94 140.915,52.16 139.475,52.16 C138.005,52.16 136.955,52.94 136.445,54.08 C136.145,54.74 136.085,55.22 136.055,56.15 L142.895,56.15 Z M159.655,51.05 C158.605,50 157.495,49.61 156.025,49.61 C154.315,49.61 152.755,50.36 151.975,51.44 L151.975,49.79 L148.975,49.79 L148.975,65 L152.035,65 L152.035,55.76 C152.035,53.66 153.415,52.34 155.065,52.34 C156.115,52.34 156.655,52.67 157.345,53.36 L159.655,51.05 Z" id="CSSer" fill="#575757"></path>
        <g id="logo">
            <path d="M34,68 C15.2223185,68 0,52.7776815 0,34 C0,15.2223185 15.2223185,0 34,0 C52.7776815,0 68,15.2223185 68,34 C68,52.7776815 52.7776815,68 34,68 Z M24,26 C26.7614237,26 29,23.7614237 29,21 C29,18.2385763 26.7614237,16 24,16 C21.2385763,16 19,18.2385763 19,21 C19,23.7614237 21.2385763,26 24,26 Z" id="Combined-Shape" fill="url(#colorGradient)"></path>
            <path d="M57.8633086,9.78135232 C64.1208067,15.9476083 68,24.5207871 68,34 C68,43.4792129 64.1208067,52.0523917 57.8633086,58.2186477 L36.478172,36.833511 C34.913267,35.2686061 34.9134002,32.7312607 36.478172,31.166489 L57.8633086,9.78135232 L57.8633086,9.78135232 Z" id="Combined-Shape" fill="url(#whiteGradient)"></path>
        </g>
    </g>
</svg>