<?xml version="1.0" encoding="UTF-8"?>
<svg width="213px" height="34px" viewBox="0 0 213 34" version="1.1" xmlns="http://www.w3.org/2000/svg" xmlns:xlink="http://www.w3.org/1999/xlink">
    <title>logo type-3</title>
    <defs>
        <linearGradient x1="10.7179612%" y1="14.0965441%" x2="88.0491286%" y2="86.5972222%" id="colorGradient">
            <stop stop-color="#FF126D" offset="0%"></stop>
            <stop stop-color="#FFC11F" offset="100%"></stop>
        </linearGradient>
        <linearGradient x1="50%" y1="16.8871444%" x2="136.9174%" y2="78.3146358%" id="whiteGradient">
            <stop stop-color="#FFFFFF" offset="0%"></stop>
            <stop stop-color="#FFFFFF" stop-opacity="0" offset="100%"></stop>
        </linearGradient>
    </defs>
    <g id="logo-type-3">
        <path d="M64.015,27 L64.015,5.64 L60.775,5.64 L60.775,14.76 L52.105,14.76 L52.105,5.64 L48.865,5.64 L48.865,27 L52.105,27 L52.105,17.67 L60.775,17.67 L60.775,27 L64.015,27 Z M79.425,27 L76.425,27 L76.425,25.62 C75.315,26.73 74.265,27.18 72.375,27.18 C70.485,27.18 69.225,26.73 68.295,25.8 C67.515,24.99 67.095,23.82 67.095,22.53 C67.095,19.98 68.865,18.15 72.375,18.15 L76.365,18.15 L76.365,17.07 C76.365,15.12 75.435,14.22 73.035,14.22 C71.415,14.22 70.575,14.64 69.705,15.72 L67.725,13.83 C69.135,12.15 70.605,11.61 73.155,11.61 C77.355,11.61 79.425,13.41 79.425,16.83 L79.425,27 Z M76.365,21.51 L76.365,20.28 L72.855,20.28 C70.995,20.28 70.065,21.06 70.065,22.47 C70.065,23.88 70.935,24.63 72.945,24.63 C74.025,24.63 74.895,24.51 75.705,23.76 C76.185,23.31 76.365,22.59 76.365,21.51 Z M95.585,19.38 C95.585,21.87 95.345,24.33 93.875,25.83 C93.035,26.67 91.745,27.18 90.185,27.18 C88.565,27.18 87.305,26.79 86.195,25.44 L86.195,33.15 L83.135,33.15 L83.135,11.79 L86.135,11.79 L86.135,13.41 C87.275,12.03 88.535,11.61 90.155,11.61 C91.715,11.61 93.035,12.12 93.875,12.96 C95.345,14.46 95.585,16.89 95.585,19.38 Z M92.525,19.38 C92.525,16.68 92.135,14.34 89.375,14.34 C86.585,14.34 86.195,16.68 86.195,19.38 C86.195,22.08 86.585,24.45 89.375,24.45 C92.135,24.45 92.525,22.08 92.525,19.38 Z M111.175,19.38 C111.175,21.87 110.935,24.33 109.465,25.83 C108.625,26.67 107.335,27.18 105.775,27.18 C104.155,27.18 102.895,26.79 101.785,25.44 L101.785,33.15 L98.725,33.15 L98.725,11.79 L101.725,11.79 L101.725,13.41 C102.865,12.03 104.125,11.61 105.745,11.61 C107.305,11.61 108.625,12.12 109.465,12.96 C110.935,14.46 111.175,16.89 111.175,19.38 Z M108.115,19.38 C108.115,16.68 107.725,14.34 104.965,14.34 C102.175,14.34 101.785,16.68 101.785,19.38 C101.785,22.08 102.175,24.45 104.965,24.45 C107.725,24.45 108.115,22.08 108.115,19.38 Z M125.805,11.79 L122.535,11.79 L118.995,22.5 L115.365,11.79 L112.125,11.79 L117.435,26.28 L116.595,28.65 C116.145,29.88 115.695,30.27 114.405,30.27 L113.625,30.27 L113.625,33.03 L114.855,33.03 C116.025,33.03 117.135,32.76 117.975,31.92 C118.425,31.47 118.785,30.87 119.085,30.03 L125.805,11.79 Z" id="Happy" fill="#575757"></path>
        <path d="M150.595,20.61 L147.355,20.61 C146.845,22.8 145.345,24.3 142.975,24.3 C141.685,24.3 140.605,23.82 139.825,22.98 C138.745,21.84 138.535,20.55 138.535,16.32 C138.535,12.09 138.745,10.8 139.825,9.66 C140.605,8.82 141.685,8.34 142.975,8.34 C145.345,8.34 146.815,9.84 147.295,12.03 L150.595,12.03 C149.845,7.8 146.905,5.46 142.975,5.46 C140.635,5.46 138.835,6.24 137.455,7.62 C135.385,9.72 135.295,11.85 135.295,16.32 C135.295,20.79 135.385,22.92 137.455,25.02 C138.835,26.4 140.635,27.18 142.975,27.18 C146.875,27.18 149.845,24.84 150.595,20.61 Z M167.265,20.91 C167.265,19.05 166.665,17.58 165.525,16.53 C164.595,15.69 163.515,15.24 161.565,14.94 L159.015,14.55 C157.845,14.37 157.215,14.07 156.675,13.59 C156.105,13.11 155.895,12.39 155.895,11.61 C155.895,9.66 157.245,8.28 159.765,8.28 C161.595,8.28 163.155,8.67 164.475,9.93 L166.515,7.89 C164.685,6.18 162.735,5.46 159.885,5.46 C155.445,5.46 152.745,7.98 152.745,11.7 C152.745,13.47 153.285,14.85 154.335,15.81 C155.265,16.71 156.615,17.25 158.355,17.52 L160.875,17.88 C161.955,18.03 162.675,18.3 163.215,18.78 C163.815,19.29 164.055,20.04 164.055,21 C164.055,23.1 162.465,24.3 159.645,24.3 C157.485,24.3 155.715,23.79 154.155,22.23 L152.025,24.36 C154.095,26.43 156.375,27.18 159.585,27.18 C164.085,27.18 167.265,24.84 167.265,20.91 Z M183.815,20.91 C183.815,19.05 183.215,17.58 182.075,16.53 C181.145,15.69 180.065,15.24 178.115,14.94 L175.565,14.55 C174.395,14.37 173.765,14.07 173.225,13.59 C172.655,13.11 172.445,12.39 172.445,11.61 C172.445,9.66 173.795,8.28 176.315,8.28 C178.145,8.28 179.705,8.67 181.025,9.93 L183.065,7.89 C181.235,6.18 179.285,5.46 176.435,5.46 C171.995,5.46 169.295,7.98 169.295,11.7 C169.295,13.47 169.835,14.85 170.885,15.81 C171.815,16.71 173.165,17.25 174.905,17.52 L177.425,17.88 C178.505,18.03 179.225,18.3 179.765,18.78 C180.365,19.29 180.605,20.04 180.605,21 C180.605,23.1 179.015,24.3 176.195,24.3 C174.035,24.3 172.265,23.79 170.705,22.23 L168.575,24.36 C170.645,26.43 172.925,27.18 176.135,27.18 C180.635,27.18 183.815,24.84 183.815,20.91 Z M198.925,20.28 L189.055,20.28 C189.055,22.92 190.405,24.54 192.925,24.54 C194.635,24.54 195.535,24.06 196.615,22.98 L198.565,24.81 C197.005,26.37 195.535,27.18 192.865,27.18 C189.055,27.18 186.025,25.17 186.025,19.38 C186.025,14.43 188.575,11.61 192.475,11.61 C196.555,11.61 198.925,14.55 198.925,18.99 L198.925,20.28 Z M195.895,18.15 C195.835,17.22 195.775,16.74 195.475,16.08 C194.965,14.94 193.915,14.16 192.475,14.16 C191.005,14.16 189.955,14.94 189.445,16.08 C189.145,16.74 189.085,17.22 189.055,18.15 L195.895,18.15 Z M212.655,13.05 C211.605,12 210.495,11.61 209.025,11.61 C207.315,11.61 205.755,12.36 204.975,13.44 L204.975,11.79 L201.975,11.79 L201.975,27 L205.035,27 L205.035,17.76 C205.035,15.66 206.415,14.34 208.065,14.34 C209.115,14.34 209.655,14.67 210.345,15.36 L212.655,13.05 Z" id="CSSer" fill="#575757"></path>
        <g id="logo">
            <path d="M17,34 C7.61115925,34 0,26.3888407 0,17 C0,7.61115925 7.61115925,0 17,0 C26.3888407,0 34,7.61115925 34,17 C34,26.3888407 26.3888407,34 17,34 Z M12,13 C13.3807119,13 14.5,11.8807119 14.5,10.5 C14.5,9.11928813 13.3807119,8 12,8 C10.6192881,8 9.5,9.11928813 9.5,10.5 C9.5,11.8807119 10.6192881,13 12,13 Z" id="Combined-Shape" fill="url(#colorGradient)"></path>
            <path d="M28.9316543,4.89067616 C32.0604033,7.97380415 34,12.2603935 34,17 C34,21.7396065 32.0604033,26.0261959 28.9316543,29.1093238 L18.239086,18.4167555 C17.4566335,17.634303 17.4567001,16.3656304 18.239086,15.5832445 L28.9316543,4.89067616 L28.9316543,4.89067616 Z" id="Combined-Shape" fill="url(#whiteGradient)"></path>
        </g>
    </g>
</svg>