<?xml version="1.0" encoding="UTF-8"?>
<svg width="165px" height="118px" viewBox="0 0 165 118" version="1.1" xmlns="http://www.w3.org/2000/svg" xmlns:xlink="http://www.w3.org/1999/xlink">
    <title>logo type-2</title>
    <defs>
        <linearGradient x1="10.7179612%" y1="14.0965441%" x2="88.0491286%" y2="86.5972222%" id="colorGradient">
            <stop stop-color="#FF126D" offset="0%"></stop>
            <stop stop-color="#FFC11F" offset="100%"></stop>
        </linearGradient>
        <linearGradient x1="50%" y1="16.8871444%" x2="136.9174%" y2="78.3146358%" id="whiteGradient">
            <stop stop-color="#FFFFFF" offset="0%"></stop>
            <stop stop-color="#FFFFFF" stop-opacity="0" offset="100%"></stop>
        </linearGradient>
    </defs>
    <g id="logo-type-2">
        <path d="M15.515,111 L15.515,89.64 L12.275,89.64 L12.275,98.76 L3.605,98.76 L3.605,89.64 L0.365,89.64 L0.365,111 L3.605,111 L3.605,101.67 L12.275,101.67 L12.275,111 L15.515,111 Z M30.925,111 L27.925,111 L27.925,109.62 C26.815,110.73 25.765,111.18 23.875,111.18 C21.985,111.18 20.725,110.73 19.795,109.8 C19.015,108.99 18.595,107.82 18.595,106.53 C18.595,103.98 20.365,102.15 23.875,102.15 L27.865,102.15 L27.865,101.07 C27.865,99.12 26.935,98.22 24.535,98.22 C22.915,98.22 22.075,98.64 21.205,99.72 L19.225,97.83 C20.635,96.15 22.105,95.61 24.655,95.61 C28.855,95.61 30.925,97.41 30.925,100.83 L30.925,111 Z M27.865,105.51 L27.865,104.28 L24.355,104.28 C22.495,104.28 21.565,105.06 21.565,106.47 C21.565,107.88 22.435,108.63 24.445,108.63 C25.525,108.63 26.395,108.51 27.205,107.76 C27.685,107.31 27.865,106.59 27.865,105.51 Z M47.085,103.38 C47.085,105.87 46.845,108.33 45.375,109.83 C44.535,110.67 43.245,111.18 41.685,111.18 C40.065,111.18 38.805,110.79 37.695,109.44 L37.695,117.15 L34.635,117.15 L34.635,95.79 L37.635,95.79 L37.635,97.41 C38.775,96.03 40.035,95.61 41.655,95.61 C43.215,95.61 44.535,96.12 45.375,96.96 C46.845,98.46 47.085,100.89 47.085,103.38 Z M44.025,103.38 C44.025,100.68 43.635,98.34 40.875,98.34 C38.085,98.34 37.695,100.68 37.695,103.38 C37.695,106.08 38.085,108.45 40.875,108.45 C43.635,108.45 44.025,106.08 44.025,103.38 Z M62.675,103.38 C62.675,105.87 62.435,108.33 60.965,109.83 C60.125,110.67 58.835,111.18 57.275,111.18 C55.655,111.18 54.395,110.79 53.285,109.44 L53.285,117.15 L50.225,117.15 L50.225,95.79 L53.225,95.79 L53.225,97.41 C54.365,96.03 55.625,95.61 57.245,95.61 C58.805,95.61 60.125,96.12 60.965,96.96 C62.435,98.46 62.675,100.89 62.675,103.38 Z M59.615,103.38 C59.615,100.68 59.225,98.34 56.465,98.34 C53.675,98.34 53.285,100.68 53.285,103.38 C53.285,106.08 53.675,108.45 56.465,108.45 C59.225,108.45 59.615,106.08 59.615,103.38 Z M77.305,95.79 L74.035,95.79 L70.495,106.5 L66.865,95.79 L63.625,95.79 L68.935,110.28 L68.095,112.65 C67.645,113.88 67.195,114.27 65.905,114.27 L65.125,114.27 L65.125,117.03 L66.355,117.03 C67.525,117.03 68.635,116.76 69.475,115.92 C69.925,115.47 70.285,114.87 70.585,114.03 L77.305,95.79 Z" id="Happy" fill="#575757"></path>
        <path d="M102.095,104.61 L98.855,104.61 C98.345,106.8 96.845,108.3 94.475,108.3 C93.185,108.3 92.105,107.82 91.325,106.98 C90.245,105.84 90.035,104.55 90.035,100.32 C90.035,96.09 90.245,94.8 91.325,93.66 C92.105,92.82 93.185,92.34 94.475,92.34 C96.845,92.34 98.315,93.84 98.795,96.03 L102.095,96.03 C101.345,91.8 98.405,89.46 94.475,89.46 C92.135,89.46 90.335,90.24 88.955,91.62 C86.885,93.72 86.795,95.85 86.795,100.32 C86.795,104.79 86.885,106.92 88.955,109.02 C90.335,110.4 92.135,111.18 94.475,111.18 C98.375,111.18 101.345,108.84 102.095,104.61 Z M118.765,104.91 C118.765,103.05 118.165,101.58 117.025,100.53 C116.095,99.69 115.015,99.24 113.065,98.94 L110.515,98.55 C109.345,98.37 108.715,98.07 108.175,97.59 C107.605,97.11 107.395,96.39 107.395,95.61 C107.395,93.66 108.745,92.28 111.265,92.28 C113.095,92.28 114.655,92.67 115.975,93.93 L118.015,91.89 C116.185,90.18 114.235,89.46 111.385,89.46 C106.945,89.46 104.245,91.98 104.245,95.7 C104.245,97.47 104.785,98.85 105.835,99.81 C106.765,100.71 108.115,101.25 109.855,101.52 L112.375,101.88 C113.455,102.03 114.175,102.3 114.715,102.78 C115.315,103.29 115.555,104.04 115.555,105 C115.555,107.1 113.965,108.3 111.145,108.3 C108.985,108.3 107.215,107.79 105.655,106.23 L103.525,108.36 C105.595,110.43 107.875,111.18 111.085,111.18 C115.585,111.18 118.765,108.84 118.765,104.91 Z M135.315,104.91 C135.315,103.05 134.715,101.58 133.575,100.53 C132.645,99.69 131.565,99.24 129.615,98.94 L127.065,98.55 C125.895,98.37 125.265,98.07 124.725,97.59 C124.155,97.11 123.945,96.39 123.945,95.61 C123.945,93.66 125.295,92.28 127.815,92.28 C129.645,92.28 131.205,92.67 132.525,93.93 L134.565,91.89 C132.735,90.18 130.785,89.46 127.935,89.46 C123.495,89.46 120.795,91.98 120.795,95.7 C120.795,97.47 121.335,98.85 122.385,99.81 C123.315,100.71 124.665,101.25 126.405,101.52 L128.925,101.88 C130.005,102.03 130.725,102.3 131.265,102.78 C131.865,103.29 132.105,104.04 132.105,105 C132.105,107.1 130.515,108.3 127.695,108.3 C125.535,108.3 123.765,107.79 122.205,106.23 L120.075,108.36 C122.145,110.43 124.425,111.18 127.635,111.18 C132.135,111.18 135.315,108.84 135.315,104.91 Z M150.425,104.28 L140.555,104.28 C140.555,106.92 141.905,108.54 144.425,108.54 C146.135,108.54 147.035,108.06 148.115,106.98 L150.065,108.81 C148.505,110.37 147.035,111.18 144.365,111.18 C140.555,111.18 137.525,109.17 137.525,103.38 C137.525,98.43 140.075,95.61 143.975,95.61 C148.055,95.61 150.425,98.55 150.425,102.99 L150.425,104.28 Z M147.395,102.15 C147.335,101.22 147.275,100.74 146.975,100.08 C146.465,98.94 145.415,98.16 143.975,98.16 C142.505,98.16 141.455,98.94 140.945,100.08 C140.645,100.74 140.585,101.22 140.555,102.15 L147.395,102.15 Z M164.155,97.05 C163.105,96 161.995,95.61 160.525,95.61 C158.815,95.61 157.255,96.36 156.475,97.44 L156.475,95.79 L153.475,95.79 L153.475,111 L156.535,111 L156.535,101.76 C156.535,99.66 157.915,98.34 159.565,98.34 C160.615,98.34 161.155,98.67 161.845,99.36 L164.155,97.05 Z" id="CSSer" fill="#575757"></path>
        <g id="logo" transform="translate(47.000000, 0.000000)">
            <path d="M34,68 C15.2223185,68 0,52.7776815 0,34 C0,15.2223185 15.2223185,0 34,0 C52.7776815,0 68,15.2223185 68,34 C68,52.7776815 52.7776815,68 34,68 Z M24,26 C26.7614237,26 29,23.7614237 29,21 C29,18.2385763 26.7614237,16 24,16 C21.2385763,16 19,18.2385763 19,21 C19,23.7614237 21.2385763,26 24,26 Z" id="Combined-Shape" fill="url(#colorGradient)"></path>
            <path d="M57.8633086,9.78135232 C64.1208067,15.9476083 68,24.5207871 68,34 C68,43.4792129 64.1208067,52.0523917 57.8633086,58.2186477 L36.478172,36.833511 C34.913267,35.2686061 34.9134002,32.7312607 36.478172,31.166489 L57.8633086,9.78135232 L57.8633086,9.78135232 Z" id="Combined-Shape" fill="url(#whiteGradient)"></path>
        </g>
    </g>
</svg>