<?xml version="1.0" encoding="UTF-8"?>
<svg width="208px" height="116px" viewBox="0 0 208 116" version="1.1" xmlns="http://www.w3.org/2000/svg" xmlns:xlink="http://www.w3.org/1999/xlink">
    <title>logo-type-1</title>
    <defs>
        <linearGradient x1="10.7179612%" y1="14.0965441%" x2="88.0491286%" y2="86.5972222%" id="colorGradient">
            <stop stop-color="#FF126D" offset="0%"></stop>
            <stop stop-color="#FFC11F" offset="100%"></stop>
        </linearGradient>
        <linearGradient x1="50%" y1="16.8871444%" x2="136.9174%" y2="78.3146358%" id="whiteGradient">
            <stop stop-color="#FFFFFF" offset="0%"></stop>
            <stop stop-color="#FFFFFF" stop-opacity="0" offset="100%"></stop>
        </linearGradient>
    </defs>
    <g id="logo-type-1">
        <rect id="Rectangle" fill="#FFFFFF" opacity="0" x="0" y="0" width="208" height="116"></rect>
        <path d="M122.015,51 L122.015,29.64 L118.775,29.64 L118.775,38.76 L110.105,38.76 L110.105,29.64 L106.865,29.64 L106.865,51 L110.105,51 L110.105,41.67 L118.775,41.67 L118.775,51 L122.015,51 Z M137.425,51 L134.425,51 L134.425,49.62 C133.315,50.73 132.265,51.18 130.375,51.18 C128.485,51.18 127.225,50.73 126.295,49.8 C125.515,48.99 125.095,47.82 125.095,46.53 C125.095,43.98 126.865,42.15 130.375,42.15 L134.365,42.15 L134.365,41.07 C134.365,39.12 133.435,38.22 131.035,38.22 C129.415,38.22 128.575,38.64 127.705,39.72 L125.725,37.83 C127.135,36.15 128.605,35.61 131.155,35.61 C135.355,35.61 137.425,37.41 137.425,40.83 L137.425,51 Z M134.365,45.51 L134.365,44.28 L130.855,44.28 C128.995,44.28 128.065,45.06 128.065,46.47 C128.065,47.88 128.935,48.63 130.945,48.63 C132.025,48.63 132.895,48.51 133.705,47.76 C134.185,47.31 134.365,46.59 134.365,45.51 Z M153.585,43.38 C153.585,45.87 153.345,48.33 151.875,49.83 C151.035,50.67 149.745,51.18 148.185,51.18 C146.565,51.18 145.305,50.79 144.195,49.44 L144.195,57.15 L141.135,57.15 L141.135,35.79 L144.135,35.79 L144.135,37.41 C145.275,36.03 146.535,35.61 148.155,35.61 C149.715,35.61 151.035,36.12 151.875,36.96 C153.345,38.46 153.585,40.89 153.585,43.38 Z M150.525,43.38 C150.525,40.68 150.135,38.34 147.375,38.34 C144.585,38.34 144.195,40.68 144.195,43.38 C144.195,46.08 144.585,48.45 147.375,48.45 C150.135,48.45 150.525,46.08 150.525,43.38 Z M169.175,43.38 C169.175,45.87 168.935,48.33 167.465,49.83 C166.625,50.67 165.335,51.18 163.775,51.18 C162.155,51.18 160.895,50.79 159.785,49.44 L159.785,57.15 L156.725,57.15 L156.725,35.79 L159.725,35.79 L159.725,37.41 C160.865,36.03 162.125,35.61 163.745,35.61 C165.305,35.61 166.625,36.12 167.465,36.96 C168.935,38.46 169.175,40.89 169.175,43.38 Z M166.115,43.38 C166.115,40.68 165.725,38.34 162.965,38.34 C160.175,38.34 159.785,40.68 159.785,43.38 C159.785,46.08 160.175,48.45 162.965,48.45 C165.725,48.45 166.115,46.08 166.115,43.38 Z M183.805,35.79 L180.535,35.79 L176.995,46.5 L173.365,35.79 L170.125,35.79 L175.435,50.28 L174.595,52.65 C174.145,53.88 173.695,54.27 172.405,54.27 L171.625,54.27 L171.625,57.03 L172.855,57.03 C174.025,57.03 175.135,56.76 175.975,55.92 C176.425,55.47 176.785,54.87 177.085,54.03 L183.805,35.79 Z" id="Happy" fill="#575757"></path>
        <path d="M121.595,82.61 L118.355,82.61 C117.845,84.8 116.345,86.3 113.975,86.3 C112.685,86.3 111.605,85.82 110.825,84.98 C109.745,83.84 109.535,82.55 109.535,78.32 C109.535,74.09 109.745,72.8 110.825,71.66 C111.605,70.82 112.685,70.34 113.975,70.34 C116.345,70.34 117.815,71.84 118.295,74.03 L121.595,74.03 C120.845,69.8 117.905,67.46 113.975,67.46 C111.635,67.46 109.835,68.24 108.455,69.62 C106.385,71.72 106.295,73.85 106.295,78.32 C106.295,82.79 106.385,84.92 108.455,87.02 C109.835,88.4 111.635,89.18 113.975,89.18 C117.875,89.18 120.845,86.84 121.595,82.61 Z M138.265,82.91 C138.265,81.05 137.665,79.58 136.525,78.53 C135.595,77.69 134.515,77.24 132.565,76.94 L130.015,76.55 C128.845,76.37 128.215,76.07 127.675,75.59 C127.105,75.11 126.895,74.39 126.895,73.61 C126.895,71.66 128.245,70.28 130.765,70.28 C132.595,70.28 134.155,70.67 135.475,71.93 L137.515,69.89 C135.685,68.18 133.735,67.46 130.885,67.46 C126.445,67.46 123.745,69.98 123.745,73.7 C123.745,75.47 124.285,76.85 125.335,77.81 C126.265,78.71 127.615,79.25 129.355,79.52 L131.875,79.88 C132.955,80.03 133.675,80.3 134.215,80.78 C134.815,81.29 135.055,82.04 135.055,83 C135.055,85.1 133.465,86.3 130.645,86.3 C128.485,86.3 126.715,85.79 125.155,84.23 L123.025,86.36 C125.095,88.43 127.375,89.18 130.585,89.18 C135.085,89.18 138.265,86.84 138.265,82.91 Z M154.815,82.91 C154.815,81.05 154.215,79.58 153.075,78.53 C152.145,77.69 151.065,77.24 149.115,76.94 L146.565,76.55 C145.395,76.37 144.765,76.07 144.225,75.59 C143.655,75.11 143.445,74.39 143.445,73.61 C143.445,71.66 144.795,70.28 147.315,70.28 C149.145,70.28 150.705,70.67 152.025,71.93 L154.065,69.89 C152.235,68.18 150.285,67.46 147.435,67.46 C142.995,67.46 140.295,69.98 140.295,73.7 C140.295,75.47 140.835,76.85 141.885,77.81 C142.815,78.71 144.165,79.25 145.905,79.52 L148.425,79.88 C149.505,80.03 150.225,80.3 150.765,80.78 C151.365,81.29 151.605,82.04 151.605,83 C151.605,85.1 150.015,86.3 147.195,86.3 C145.035,86.3 143.265,85.79 141.705,84.23 L139.575,86.36 C141.645,88.43 143.925,89.18 147.135,89.18 C151.635,89.18 154.815,86.84 154.815,82.91 Z M169.925,82.28 L160.055,82.28 C160.055,84.92 161.405,86.54 163.925,86.54 C165.635,86.54 166.535,86.06 167.615,84.98 L169.565,86.81 C168.005,88.37 166.535,89.18 163.865,89.18 C160.055,89.18 157.025,87.17 157.025,81.38 C157.025,76.43 159.575,73.61 163.475,73.61 C167.555,73.61 169.925,76.55 169.925,80.99 L169.925,82.28 Z M166.895,80.15 C166.835,79.22 166.775,78.74 166.475,78.08 C165.965,76.94 164.915,76.16 163.475,76.16 C162.005,76.16 160.955,76.94 160.445,78.08 C160.145,78.74 160.085,79.22 160.055,80.15 L166.895,80.15 Z M183.655,75.05 C182.605,74 181.495,73.61 180.025,73.61 C178.315,73.61 176.755,74.36 175.975,75.44 L175.975,73.79 L172.975,73.79 L172.975,89 L176.035,89 L176.035,79.76 C176.035,77.66 177.415,76.34 179.065,76.34 C180.115,76.34 180.655,76.67 181.345,77.36 L183.655,75.05 Z" id="CSSer" fill="#575757"></path>
        <g id="logo" transform="translate(24.000000, 24.000000)">
            <path d="M34,68 C15.2223185,68 0,52.7776815 0,34 C0,15.2223185 15.2223185,0 34,0 C52.7776815,0 68,15.2223185 68,34 C68,52.7776815 52.7776815,68 34,68 Z M24,26 C26.7614237,26 29,23.7614237 29,21 C29,18.2385763 26.7614237,16 24,16 C21.2385763,16 19,18.2385763 19,21 C19,23.7614237 21.2385763,26 24,26 Z" id="Combined-Shape" fill="url(#colorGradient)"></path>
            <path d="M57.8633086,9.78135232 C64.1208067,15.9476083 68,24.5207871 68,34 C68,43.4792129 64.1208067,52.0523917 57.8633086,58.2186477 L36.478172,36.833511 C34.913267,35.2686061 34.9134002,32.7312607 36.478172,31.166489 L57.8633086,9.78135232 L57.8633086,9.78135232 Z" id="Combined-Shape" fill="url(#whiteGradient)"></path>
        </g>
    </g>
</svg>