<?xml version="1.0" encoding="UTF-8"?>
<svg width="261px" height="82px" viewBox="0 0 261 82" version="1.1" xmlns="http://www.w3.org/2000/svg" xmlns:xlink="http://www.w3.org/1999/xlink">
    <title>logo-type-3</title>
    <defs>
        <linearGradient x1="10.7179612%" y1="14.0965441%" x2="88.0491286%" y2="86.5972222%" id="colorGradient">
            <stop stop-color="#FF126D" offset="0%"></stop>
            <stop stop-color="#FFC11F" offset="100%"></stop>
        </linearGradient>
        <linearGradient x1="50%" y1="16.8871444%" x2="136.9174%" y2="78.3146358%" id="whiteGradient">
            <stop stop-color="#FFFFFF" offset="0%"></stop>
            <stop stop-color="#FFFFFF" stop-opacity="0" offset="100%"></stop>
        </linearGradient>
    </defs>
    <g id="logo-type-3">
        <rect id="Rectangle" fill="#FFFFFF" opacity="0" x="0" y="0" width="261" height="82"></rect>
        <g id="logo" transform="translate(24.000000, 24.000000)">
            <path d="M17,34 C7.61115925,34 0,26.3888407 0,17 C0,7.61115925 7.61115925,0 17,0 C26.3888407,0 34,7.61115925 34,17 C34,26.3888407 26.3888407,34 17,34 Z M12,13 C13.3807119,13 14.5,11.8807119 14.5,10.5 C14.5,9.11928813 13.3807119,8 12,8 C10.6192881,8 9.5,9.11928813 9.5,10.5 C9.5,11.8807119 10.6192881,13 12,13 Z" id="Combined-Shape" fill="url(#colorGradient)"></path>
            <path d="M28.9316543,4.89067616 C32.0604033,7.97380415 34,12.2603935 34,17 C34,21.7396065 32.0604033,26.0261959 28.9316543,29.1093238 L18.239086,18.4167555 C17.4566335,17.634303 17.4567001,16.3656304 18.239086,15.5832445 L28.9316543,4.89067616 L28.9316543,4.89067616 Z" id="Combined-Shape" fill="url(#whiteGradient)"></path>
        </g>
        <path d="M88.015,51 L88.015,29.64 L84.775,29.64 L84.775,38.76 L76.105,38.76 L76.105,29.64 L72.865,29.64 L72.865,51 L76.105,51 L76.105,41.67 L84.775,41.67 L84.775,51 L88.015,51 Z M103.425,51 L100.425,51 L100.425,49.62 C99.315,50.73 98.265,51.18 96.375,51.18 C94.485,51.18 93.225,50.73 92.295,49.8 C91.515,48.99 91.095,47.82 91.095,46.53 C91.095,43.98 92.865,42.15 96.375,42.15 L100.365,42.15 L100.365,41.07 C100.365,39.12 99.435,38.22 97.035,38.22 C95.415,38.22 94.575,38.64 93.705,39.72 L91.725,37.83 C93.135,36.15 94.605,35.61 97.155,35.61 C101.355,35.61 103.425,37.41 103.425,40.83 L103.425,51 Z M100.365,45.51 L100.365,44.28 L96.855,44.28 C94.995,44.28 94.065,45.06 94.065,46.47 C94.065,47.88 94.935,48.63 96.945,48.63 C98.025,48.63 98.895,48.51 99.705,47.76 C100.185,47.31 100.365,46.59 100.365,45.51 Z M119.585,43.38 C119.585,45.87 119.345,48.33 117.875,49.83 C117.035,50.67 115.745,51.18 114.185,51.18 C112.565,51.18 111.305,50.79 110.195,49.44 L110.195,57.15 L107.135,57.15 L107.135,35.79 L110.135,35.79 L110.135,37.41 C111.275,36.03 112.535,35.61 114.155,35.61 C115.715,35.61 117.035,36.12 117.875,36.96 C119.345,38.46 119.585,40.89 119.585,43.38 Z M116.525,43.38 C116.525,40.68 116.135,38.34 113.375,38.34 C110.585,38.34 110.195,40.68 110.195,43.38 C110.195,46.08 110.585,48.45 113.375,48.45 C116.135,48.45 116.525,46.08 116.525,43.38 Z M135.175,43.38 C135.175,45.87 134.935,48.33 133.465,49.83 C132.625,50.67 131.335,51.18 129.775,51.18 C128.155,51.18 126.895,50.79 125.785,49.44 L125.785,57.15 L122.725,57.15 L122.725,35.79 L125.725,35.79 L125.725,37.41 C126.865,36.03 128.125,35.61 129.745,35.61 C131.305,35.61 132.625,36.12 133.465,36.96 C134.935,38.46 135.175,40.89 135.175,43.38 Z M132.115,43.38 C132.115,40.68 131.725,38.34 128.965,38.34 C126.175,38.34 125.785,40.68 125.785,43.38 C125.785,46.08 126.175,48.45 128.965,48.45 C131.725,48.45 132.115,46.08 132.115,43.38 Z M149.805,35.79 L146.535,35.79 L142.995,46.5 L139.365,35.79 L136.125,35.79 L141.435,50.28 L140.595,52.65 C140.145,53.88 139.695,54.27 138.405,54.27 L137.625,54.27 L137.625,57.03 L138.855,57.03 C140.025,57.03 141.135,56.76 141.975,55.92 C142.425,55.47 142.785,54.87 143.085,54.03 L149.805,35.79 Z" id="Happy" fill="#575757"></path>
        <path d="M174.595,44.61 L171.355,44.61 C170.845,46.8 169.345,48.3 166.975,48.3 C165.685,48.3 164.605,47.82 163.825,46.98 C162.745,45.84 162.535,44.55 162.535,40.32 C162.535,36.09 162.745,34.8 163.825,33.66 C164.605,32.82 165.685,32.34 166.975,32.34 C169.345,32.34 170.815,33.84 171.295,36.03 L174.595,36.03 C173.845,31.8 170.905,29.46 166.975,29.46 C164.635,29.46 162.835,30.24 161.455,31.62 C159.385,33.72 159.295,35.85 159.295,40.32 C159.295,44.79 159.385,46.92 161.455,49.02 C162.835,50.4 164.635,51.18 166.975,51.18 C170.875,51.18 173.845,48.84 174.595,44.61 Z M191.265,44.91 C191.265,43.05 190.665,41.58 189.525,40.53 C188.595,39.69 187.515,39.24 185.565,38.94 L183.015,38.55 C181.845,38.37 181.215,38.07 180.675,37.59 C180.105,37.11 179.895,36.39 179.895,35.61 C179.895,33.66 181.245,32.28 183.765,32.28 C185.595,32.28 187.155,32.67 188.475,33.93 L190.515,31.89 C188.685,30.18 186.735,29.46 183.885,29.46 C179.445,29.46 176.745,31.98 176.745,35.7 C176.745,37.47 177.285,38.85 178.335,39.81 C179.265,40.71 180.615,41.25 182.355,41.52 L184.875,41.88 C185.955,42.03 186.675,42.3 187.215,42.78 C187.815,43.29 188.055,44.04 188.055,45 C188.055,47.1 186.465,48.3 183.645,48.3 C181.485,48.3 179.715,47.79 178.155,46.23 L176.025,48.36 C178.095,50.43 180.375,51.18 183.585,51.18 C188.085,51.18 191.265,48.84 191.265,44.91 Z M207.815,44.91 C207.815,43.05 207.215,41.58 206.075,40.53 C205.145,39.69 204.065,39.24 202.115,38.94 L199.565,38.55 C198.395,38.37 197.765,38.07 197.225,37.59 C196.655,37.11 196.445,36.39 196.445,35.61 C196.445,33.66 197.795,32.28 200.315,32.28 C202.145,32.28 203.705,32.67 205.025,33.93 L207.065,31.89 C205.235,30.18 203.285,29.46 200.435,29.46 C195.995,29.46 193.295,31.98 193.295,35.7 C193.295,37.47 193.835,38.85 194.885,39.81 C195.815,40.71 197.165,41.25 198.905,41.52 L201.425,41.88 C202.505,42.03 203.225,42.3 203.765,42.78 C204.365,43.29 204.605,44.04 204.605,45 C204.605,47.1 203.015,48.3 200.195,48.3 C198.035,48.3 196.265,47.79 194.705,46.23 L192.575,48.36 C194.645,50.43 196.925,51.18 200.135,51.18 C204.635,51.18 207.815,48.84 207.815,44.91 Z M222.925,44.28 L213.055,44.28 C213.055,46.92 214.405,48.54 216.925,48.54 C218.635,48.54 219.535,48.06 220.615,46.98 L222.565,48.81 C221.005,50.37 219.535,51.18 216.865,51.18 C213.055,51.18 210.025,49.17 210.025,43.38 C210.025,38.43 212.575,35.61 216.475,35.61 C220.555,35.61 222.925,38.55 222.925,42.99 L222.925,44.28 Z M219.895,42.15 C219.835,41.22 219.775,40.74 219.475,40.08 C218.965,38.94 217.915,38.16 216.475,38.16 C215.005,38.16 213.955,38.94 213.445,40.08 C213.145,40.74 213.085,41.22 213.055,42.15 L219.895,42.15 Z M236.655,37.05 C235.605,36 234.495,35.61 233.025,35.61 C231.315,35.61 229.755,36.36 228.975,37.44 L228.975,35.79 L225.975,35.79 L225.975,51 L229.035,51 L229.035,41.76 C229.035,39.66 230.415,38.34 232.065,38.34 C233.115,38.34 233.655,38.67 234.345,39.36 L236.655,37.05 Z" id="CSSer" fill="#575757"></path>
    </g>
</svg>