<?xml version="1.0" encoding="UTF-8"?>
<svg width="213px" height="166px" viewBox="0 0 213 166" version="1.1" xmlns="http://www.w3.org/2000/svg" xmlns:xlink="http://www.w3.org/1999/xlink">
    <title>logo-type-2</title>
    <defs>
        <linearGradient x1="10.7179612%" y1="14.0965441%" x2="88.0491286%" y2="86.5972222%" id="colorGradient">
            <stop stop-color="#FF126D" offset="0%"></stop>
            <stop stop-color="#FFC11F" offset="100%"></stop>
        </linearGradient>
        <linearGradient x1="50%" y1="16.8871444%" x2="136.9174%" y2="78.3146358%" id="whiteGradient">
            <stop stop-color="#FFFFFF" offset="0%"></stop>
            <stop stop-color="#FFFFFF" stop-opacity="0" offset="100%"></stop>
        </linearGradient>
    </defs>
    <g id="logo-type-2">
        <rect id="Rectangle" fill="#FFFFFF" opacity="0" x="0" y="0" width="213" height="166"></rect>
        <path d="M39.515,135 L39.515,113.64 L36.275,113.64 L36.275,122.76 L27.605,122.76 L27.605,113.64 L24.365,113.64 L24.365,135 L27.605,135 L27.605,125.67 L36.275,125.67 L36.275,135 L39.515,135 Z M54.925,135 L51.925,135 L51.925,133.62 C50.815,134.73 49.765,135.18 47.875,135.18 C45.985,135.18 44.725,134.73 43.795,133.8 C43.015,132.99 42.595,131.82 42.595,130.53 C42.595,127.98 44.365,126.15 47.875,126.15 L51.865,126.15 L51.865,125.07 C51.865,123.12 50.935,122.22 48.535,122.22 C46.915,122.22 46.075,122.64 45.205,123.72 L43.225,121.83 C44.635,120.15 46.105,119.61 48.655,119.61 C52.855,119.61 54.925,121.41 54.925,124.83 L54.925,135 Z M51.865,129.51 L51.865,128.28 L48.355,128.28 C46.495,128.28 45.565,129.06 45.565,130.47 C45.565,131.88 46.435,132.63 48.445,132.63 C49.525,132.63 50.395,132.51 51.205,131.76 C51.685,131.31 51.865,130.59 51.865,129.51 Z M71.085,127.38 C71.085,129.87 70.845,132.33 69.375,133.83 C68.535,134.67 67.245,135.18 65.685,135.18 C64.065,135.18 62.805,134.79 61.695,133.44 L61.695,141.15 L58.635,141.15 L58.635,119.79 L61.635,119.79 L61.635,121.41 C62.775,120.03 64.035,119.61 65.655,119.61 C67.215,119.61 68.535,120.12 69.375,120.96 C70.845,122.46 71.085,124.89 71.085,127.38 Z M68.025,127.38 C68.025,124.68 67.635,122.34 64.875,122.34 C62.085,122.34 61.695,124.68 61.695,127.38 C61.695,130.08 62.085,132.45 64.875,132.45 C67.635,132.45 68.025,130.08 68.025,127.38 Z M86.675,127.38 C86.675,129.87 86.435,132.33 84.965,133.83 C84.125,134.67 82.835,135.18 81.275,135.18 C79.655,135.18 78.395,134.79 77.285,133.44 L77.285,141.15 L74.225,141.15 L74.225,119.79 L77.225,119.79 L77.225,121.41 C78.365,120.03 79.625,119.61 81.245,119.61 C82.805,119.61 84.125,120.12 84.965,120.96 C86.435,122.46 86.675,124.89 86.675,127.38 Z M83.615,127.38 C83.615,124.68 83.225,122.34 80.465,122.34 C77.675,122.34 77.285,124.68 77.285,127.38 C77.285,130.08 77.675,132.45 80.465,132.45 C83.225,132.45 83.615,130.08 83.615,127.38 Z M101.305,119.79 L98.035,119.79 L94.495,130.5 L90.865,119.79 L87.625,119.79 L92.935,134.28 L92.095,136.65 C91.645,137.88 91.195,138.27 89.905,138.27 L89.125,138.27 L89.125,141.03 L90.355,141.03 C91.525,141.03 92.635,140.76 93.475,139.92 C93.925,139.47 94.285,138.87 94.585,138.03 L101.305,119.79 Z" id="Happy" fill="#575757"></path>
        <path d="M126.095,128.61 L122.855,128.61 C122.345,130.8 120.845,132.3 118.475,132.3 C117.185,132.3 116.105,131.82 115.325,130.98 C114.245,129.84 114.035,128.55 114.035,124.32 C114.035,120.09 114.245,118.8 115.325,117.66 C116.105,116.82 117.185,116.34 118.475,116.34 C120.845,116.34 122.315,117.84 122.795,120.03 L126.095,120.03 C125.345,115.8 122.405,113.46 118.475,113.46 C116.135,113.46 114.335,114.24 112.955,115.62 C110.885,117.72 110.795,119.85 110.795,124.32 C110.795,128.79 110.885,130.92 112.955,133.02 C114.335,134.4 116.135,135.18 118.475,135.18 C122.375,135.18 125.345,132.84 126.095,128.61 Z M142.765,128.91 C142.765,127.05 142.165,125.58 141.025,124.53 C140.095,123.69 139.015,123.24 137.065,122.94 L134.515,122.55 C133.345,122.37 132.715,122.07 132.175,121.59 C131.605,121.11 131.395,120.39 131.395,119.61 C131.395,117.66 132.745,116.28 135.265,116.28 C137.095,116.28 138.655,116.67 139.975,117.93 L142.015,115.89 C140.185,114.18 138.235,113.46 135.385,113.46 C130.945,113.46 128.245,115.98 128.245,119.7 C128.245,121.47 128.785,122.85 129.835,123.81 C130.765,124.71 132.115,125.25 133.855,125.52 L136.375,125.88 C137.455,126.03 138.175,126.3 138.715,126.78 C139.315,127.29 139.555,128.04 139.555,129 C139.555,131.1 137.965,132.3 135.145,132.3 C132.985,132.3 131.215,131.79 129.655,130.23 L127.525,132.36 C129.595,134.43 131.875,135.18 135.085,135.18 C139.585,135.18 142.765,132.84 142.765,128.91 Z M159.315,128.91 C159.315,127.05 158.715,125.58 157.575,124.53 C156.645,123.69 155.565,123.24 153.615,122.94 L151.065,122.55 C149.895,122.37 149.265,122.07 148.725,121.59 C148.155,121.11 147.945,120.39 147.945,119.61 C147.945,117.66 149.295,116.28 151.815,116.28 C153.645,116.28 155.205,116.67 156.525,117.93 L158.565,115.89 C156.735,114.18 154.785,113.46 151.935,113.46 C147.495,113.46 144.795,115.98 144.795,119.7 C144.795,121.47 145.335,122.85 146.385,123.81 C147.315,124.71 148.665,125.25 150.405,125.52 L152.925,125.88 C154.005,126.03 154.725,126.3 155.265,126.78 C155.865,127.29 156.105,128.04 156.105,129 C156.105,131.1 154.515,132.3 151.695,132.3 C149.535,132.3 147.765,131.79 146.205,130.23 L144.075,132.36 C146.145,134.43 148.425,135.18 151.635,135.18 C156.135,135.18 159.315,132.84 159.315,128.91 Z M174.425,128.28 L164.555,128.28 C164.555,130.92 165.905,132.54 168.425,132.54 C170.135,132.54 171.035,132.06 172.115,130.98 L174.065,132.81 C172.505,134.37 171.035,135.18 168.365,135.18 C164.555,135.18 161.525,133.17 161.525,127.38 C161.525,122.43 164.075,119.61 167.975,119.61 C172.055,119.61 174.425,122.55 174.425,126.99 L174.425,128.28 Z M171.395,126.15 C171.335,125.22 171.275,124.74 170.975,124.08 C170.465,122.94 169.415,122.16 167.975,122.16 C166.505,122.16 165.455,122.94 164.945,124.08 C164.645,124.74 164.585,125.22 164.555,126.15 L171.395,126.15 Z M188.155,121.05 C187.105,120 185.995,119.61 184.525,119.61 C182.815,119.61 181.255,120.36 180.475,121.44 L180.475,119.79 L177.475,119.79 L177.475,135 L180.535,135 L180.535,125.76 C180.535,123.66 181.915,122.34 183.565,122.34 C184.615,122.34 185.155,122.67 185.845,123.36 L188.155,121.05 Z" id="CSSer" fill="#575757"></path>
        <g id="logo" transform="translate(71.000000, 24.000000)">
            <path d="M34,68 C15.2223185,68 0,52.7776815 0,34 C0,15.2223185 15.2223185,0 34,0 C52.7776815,0 68,15.2223185 68,34 C68,52.7776815 52.7776815,68 34,68 Z M24,26 C26.7614237,26 29,23.7614237 29,21 C29,18.2385763 26.7614237,16 24,16 C21.2385763,16 19,18.2385763 19,21 C19,23.7614237 21.2385763,26 24,26 Z" id="Combined-Shape" fill="url(#colorGradient)"></path>
            <path d="M57.8633086,9.78135232 C64.1208067,15.9476083 68,24.5207871 68,34 C68,43.4792129 64.1208067,52.0523917 57.8633086,58.2186477 L36.478172,36.833511 C34.913267,35.2686061 34.9134002,32.7312607 36.478172,31.166489 L57.8633086,9.78135232 L57.8633086,9.78135232 Z" id="Combined-Shape" fill="url(#whiteGradient)"></path>
        </g>
    </g>
</svg>